<?xml version="1.0" encoding="UTF-8" standalone="no"?> <!-- Created with Vectornator for iOS (http://vectornator.io/) --><!DOCTYPE svg PUBLIC "-//W3C//DTD SVG 1.1//EN" "http://www.w3.org/Graphics/SVG/1.1/DTD/svg11.dtd">
<svg viewBox="0 0 2388 2388" xmlns:vectornator="http://vectornator.io" style="fill-rule:nonzero;clip-rule:evenodd;stroke-linecap:round;stroke-linejoin:round;" width="100%" version="1.1" xml:space="preserve" xmlns="http://www.w3.org/2000/svg" height="100%" xmlns:xlink="http://www.w3.org/1999/xlink">
<metadata>
<vectornator:setting key="WDSnapToPoints" value="false"/>
<vectornator:setting value="false" key="WDDisplayWhiteBackground"/>
<vectornator:setting value="false" key="WDOutlineMode"/>
<vectornator:setting key="WDCMYKEnabledKey" value="false"/>
<vectornator:setting key="VNSnapToGuides" value="true"/>
<vectornator:setting key="WDUnits" value="Points"/>
<vectornator:setting value="true" key="WDGuidesVisible"/>
<vectornator:setting key="WDRulersVisible" value="true"/>
<vectornator:setting value="false" key="WDSnapToEdges"/>
<vectornator:setting value="false" key="WDIsolateActiveLayer"/>
<vectornator:setting key="WDDynamicGuides" value="false"/>
<vectornator:setting value="false" key="WDSnapToGrid"/>
<vectornator:setting value="false" key="UndoHistoryDisabled"/>
<vectornator:setting key="VNPencilOnly" value="false"/>
<vectornator:setting value="false" key="IsTimeLapseWatermarkDisabled"/>
<vectornator:setting key="VNDimensionsVisible" value="true"/>
</metadata>
<defs/>
<g id="Layer 2" vectornator:layerName="Layer 2" visibility="hidden">
<path fill-rule="evenodd" opacity="1" fill="#6d6d6d" d="M2.84217e-13+2.27374e-13L2388+2.27374e-13L2388+2388L2.84217e-13+2388L2.84217e-13+2.27374e-13Z"/>
</g>
<g vectornator:layerName="Layer 1" id="Layer 1">
<path fill="#000000" d="M310.201+97.7856C159.004+96.9704+34.1837+226.105+34.1837+568.638C34.1837+568.638+35.2745+595.058+49.8895+595.279C49.8895+595.279+60.7241+592.162+61.7984+568.638C61.7984+540.958+114.763+291.844+227.486+291.844C365.56+291.844+476.018+457.92+476.018+734.714C476.018+1011.51+420.789+1039.19+420.789+1177.58C420.789+1177.58+420.789+1315.98+503.633+1315.98C586.477+1315.98+614.092+1315.98+696.936+1315.98C779.78+1315.98+890.239+1371.34+973.083+1482.06C1055.93+1592.79+1138.77+1786.53+1194+1786.53C1249.23+1786.53+1332.07+1592.79+1414.92+1482.06C1497.76+1371.34+1608.22+1315.98+1691.06+1315.98C1773.91+1315.98+1801.52+1315.98+1884.37+1315.98C1967.21+1315.98+1967.21+1177.58+1967.21+1177.58C1967.21+1039.19+1911.98+1011.51+1911.98+734.714C1911.98+457.92+2022.44+291.844+2160.51+291.844C2273.24+291.844+2326.2+540.958+2326.2+568.638C2327.28+592.162+2338.11+595.279+2338.11+595.279C2352.73+595.058+2353.82+568.638+2353.82+568.638C2353.82-95.6673+1884.37+42.7295+1663.45+374.882C1608.22+457.92+1442.53+707.035+1194+707.035C945.468+707.035+779.78+457.92+724.551+374.882C617.544+213.996+452.236+98.5523+310.201+97.7856ZM807.955+902.001C1028.88+902.001+1056.49+1178.79+1056.49+1206.47C1056.49+1234.15+1056.49+1289.51+1028.87+1289.51C1001.26+1289.51+1007.2+1223.29+863.185+1151.12C752.726+1095.76+669.882+1151.13+642.267+1151.12C622.313+1151.1+614.653+1123.44+614.653+1095.76C614.653+1068.08+642.267+902.001+807.955+902.001ZM1580.04+902.001C1746.84+902.001+1773.35+1068.08+1773.35+1095.76C1773.35+1123.44+1765.7+1151.1+1745.73+1151.12C1718.12+1151.13+1635.27+1095.76+1524.82+1151.12C1380.8+1223.29+1386.74+1289.51+1359.13+1289.51C1331.51+1289.51+1331.51+1234.15+1331.51+1206.47C1331.51+1178.79+1359.13+902.001+1580.04+902.001ZM752.165+1499.96C724.551+1499.96+724.551+1527.64+724.551+1555.32C724.551+1583+779.78+1693.72+779.78+1721.4C779.78+1749.08+779.78+1776.76+752.165+1776.76C724.551+1776.76+724.551+1721.4+696.936+1721.4C669.321+1721.4+669.321+1887.47+614.092+1887.47C558.863+1887.47+448.404+1804.44+448.404+1804.44C420.789+1804.44+430.939+1824.78+448.404+1859.79C558.863+2081.23+558.863+2164.27+558.863+2191.95C558.863+2302.66+608.677+2302.12+614.092+2274.98C641.707+2136.59+641.707+2025.87+641.707+1998.19C641.707+1998.19+641.707+1970.51+669.321+1998.19C669.321+1998.19+696.936+2053.55+724.551+2053.55C779.78+2053.55+752.165+1915.15+807.395+1915.15C890.239+1915.15+835.009+2164.27+917.853+2164.27C1000.7+2164.27+1028.31+2164.27+1028.31+2081.23C1028.31+1832.11+835.009+1499.96+752.165+1499.96ZM1635.83+1499.96C1552.99+1499.96+1359.69+1832.11+1359.69+2081.23C1359.69+2164.27+1387.3+2164.27+1470.15+2164.27C1552.99+2164.27+1497.76+1915.15+1580.61+1915.15C1635.83+1915.15+1608.22+2053.55+1663.45+2053.55C1691.06+2053.55+1718.68+1998.19+1718.68+1998.19C1746.29+1970.51+1746.29+1998.19+1746.29+1998.19C1746.29+2025.87+1746.29+2136.59+1773.91+2274.98C1779.32+2302.12+1829.14+2302.66+1829.14+2191.95C1829.14+2164.27+1829.14+2081.23+1939.6+1859.79C1957.06+1824.78+1967.21+1804.44+1939.6+1804.44C1939.6+1804.44+1829.14+1887.47+1773.91+1887.47C1718.68+1887.47+1718.68+1721.4+1691.06+1721.4C1663.45+1721.4+1663.45+1776.76+1635.83+1776.76C1608.22+1776.76+1608.22+1749.08+1608.22+1721.4C1608.22+1693.72+1663.45+1583+1663.45+1555.32C1663.45+1527.64+1663.45+1499.96+1635.83+1499.96Z" opacity="1"/>
</g>
</svg>
